<svg width="53" height="53" viewBox="0 0 53 53" fill="none" xmlns="http://www.w3.org/2000/svg">
<g id="Group 1000009757">
<g id="Group 1000009028">
<rect id="Rectangle 34624607" width="53" height="53" rx="10" fill="#E7EAED" fill-opacity="0.59"/>
</g>
<g id="Group">
<path id="Vector" d="M32.8713 34.2831H24.3987C22.4419 34.2831 20.85 32.6761 20.85 30.7007V18.5654C20.85 16.59 22.4419 14.983 24.3987 14.983H32.8713C34.8281 14.983 36.42 16.59 36.42 18.5654V30.7007C36.42 32.6761 34.8281 34.2831 32.8713 34.2831ZM24.3987 16.7742C23.4204 16.7742 22.6244 17.5777 22.6244 18.5654V30.7007C22.6244 31.6884 23.4204 32.4919 24.3987 32.4919H32.8713C33.8496 32.4919 34.6457 31.6884 34.6457 30.7007V18.5654C34.6457 17.5777 33.8496 16.7742 32.8713 16.7742H24.3987ZM39.9688 28.4617V14.9382C39.9688 12.9628 38.3768 11.3558 36.42 11.3558H26.5723C26.0823 11.3558 25.6851 11.7567 25.6851 12.2514C25.6851 12.7461 26.0823 13.147 26.5723 13.147H36.42C37.3984 13.147 38.1944 13.9506 38.1944 14.9382V28.4617C38.1944 28.9564 38.5915 29.3573 39.0816 29.3573C39.5716 29.3573 39.9688 28.9564 39.9688 28.4617Z" fill="#92A1AD"/>
</g>
</g>
</svg>
